<?xml version="1.0" encoding="utf-8"?>
<!-- Generator: Adobe Illustrator 21.1.0, SVG Export Plug-In . SVG Version: 6.00 Build 0)  -->
<svg version="1.2" baseProfile="tiny" xmlns="http://www.w3.org/2000/svg" xmlns:xlink="http://www.w3.org/1999/xlink" x="0px"
	 y="0px" viewBox="0 0 3061.4 5442.5" overflow="scroll" xml:space="preserve">
<g id="background">
	<rect fill="#212121" width="3061.4" height="5442.5"/>
</g>
<g id="ironman">
	<g id="jambes">
		<path fill="#6ECCDD" d="M2160,4020.6l-37.1-907.2h0.3l-8.4-204.8h-0.3H947.2h-0.3l-45.7,1118.8v272.9h0.6h600.8h0.6v-279.7h-0.6
			v-371.8h56.3v651.5h0.6h600.8h0.6v-279.7H2160z"/>
		<polygon fill="#212121" points="2101.5,2922.3 2108.7,3099.8 1595,3099.8 1467.1,3099.8 953,3099.8 960.3,2922.3 		"/>
		<rect x="1480.7" y="3113.4" fill="#212121" width="100.6" height="518.4"/>
		<rect x="915.4" y="4034.3" fill="#212121" width="573.6" height="252.4"/>
		<polygon fill="#212121" points="915,4020.6 952.1,3113.4 1467.1,3113.4 1467.1,3645.4 1488.9,3645.4 1488.9,4020.6 		"/>
		<polygon fill="#212121" points="1572.5,3645.4 1595,3645.4 1595,3113.4 2109.3,3113.4 2146.4,4020.6 1572.5,4020.6 		"/>
		<rect x="1573.1" y="4034.3" fill="#212121" width="573.6" height="252.4"/>
	</g>
	<g id="corps">
		<path fill="#6ECCDD" d="M2158.6,2841.6l-171.9-984c-0.3-1.3-8.4-31.9-33.9-31.9h-845.3c-25.5,0-33.6,30.6-34,32.4l-171.8,983.5
			h-20.4v80.7H2179v-80.7H2158.6z"/>
		<path fill="#212121" d="M2165.4,2908.7H894.8v-53.4h12.5c3.4,0,6.2-2.4,6.7-5.6l0,0l172.7-988.7c0.1-0.2,5.9-21.6,20.7-21.6h845.3
			c14.8,0,20.5,21.1,20.6,21.1c0,0,0,0,0,0l172.8,989.2l0,0c0.6,3.2,3.3,5.7,6.7,5.7h12.5V2908.7z"/>
	</g>
	<g id="bras_x5F_gauche">
		<path fill="#6ECCDD" d="M2494.4,2787c0-0.1,0-0.2-0.1-0.3l-59.7-352.1l-0.5-1c-1.9-3.6-188.9-357.5-218-429.2
			c-30.6-75.4-139.3-94.9-143.9-95.6l-90.4-0.1l162.8,931.7l3.2-2.5c10.2,10.6,33.4,21.3,55.1,24.2l9,1.2l-4.2-28.3
			c13.5-5.2,54.8-19.6,114.6-27.5c53.2-7,98.6-4.3,113.8-3l2.7,25.8l8.6-3.9C2470,2816.2,2496.5,2801.1,2494.4,2787z"/>
		<path fill="#212121" d="M2070.4,1922.4c8.2,1.5,106.2,21.3,133,87.2c28.9,71.1,205,404.7,218.1,429.4l56.7,334.3c0,0,0,0-0.1,0
			c-0.3-0.1-0.6-0.2-0.9-0.3c-0.3-0.1-0.5-0.2-0.8-0.3c-0.3-0.1-0.7-0.2-1-0.3c-0.3-0.1-0.5-0.2-0.8-0.2c-0.4-0.1-0.7-0.2-1.1-0.3
			c-0.1,0-0.1,0-0.2-0.1c-0.9-0.3-1.8-0.5-2.8-0.8c-0.2-0.1-0.4-0.1-0.6-0.2c-0.5-0.1-0.9-0.2-1.4-0.4c-0.2,0-0.4-0.1-0.6-0.1
			c-0.5-0.1-1-0.2-1.5-0.4c0,0,0,0,0,0c-1.8-0.4-3.7-0.8-5.6-1.2c-0.1,0-0.2,0-0.3-0.1c-31.3-6-79.8-6.3-126.2-1.2
			c-0.2,0-0.4,0-0.6,0.1c-0.8,0.1-1.6,0.2-2.4,0.3c-0.3,0-0.6,0.1-0.9,0.1c-0.8,0.1-1.6,0.2-2.3,0.3c-0.1,0-0.1,0-0.2,0
			c-1.5,0.2-3,0.4-4.5,0.6c-0.5,0.1-1.1,0.1-1.6,0.2c-0.6,0.1-1.1,0.1-1.7,0.2c-0.7,0.1-1.3,0.2-2,0.3c-0.5,0.1-0.9,0.1-1.4,0.2
			c-1.1,0.2-2.2,0.3-3.3,0.5c-14.8,2.2-124.2,19-159.7,42.7L1998,1922.4H2070.4z"/>
		<path fill="#212121" d="M2450.3,2809.9l-1.9-17.9l-5.4-0.6c-2.2-0.3-55.6-6.4-122.5,2.5c-75.6,10-121.2,29.7-123.1,30.5l-4.8,2.1
			l3,20.4c-17.8-4.1-31.4-12.3-37-17.1c24.4-14.9,90.2-36.3,156.7-46.1c1.4-0.2,2.8-0.4,4.2-0.6c0.4-0.1,0.9-0.1,1.3-0.2
			c0.9-0.1,1.9-0.3,2.8-0.4c0.5-0.1,1-0.1,1.5-0.2c0.9-0.1,1.8-0.2,2.6-0.3c0.5-0.1,1-0.1,1.6-0.2c0.8-0.1,1.7-0.2,2.5-0.3
			c0.5-0.1,1.1-0.1,1.6-0.2c0.8-0.1,1.7-0.2,2.5-0.3c0.5-0.1,1.1-0.1,1.6-0.2c0.8-0.1,1.6-0.2,2.4-0.3c0.6-0.1,1.1-0.1,1.7-0.2
			c0.8-0.1,1.5-0.2,2.3-0.2c0.6-0.1,1.1-0.1,1.7-0.2c0.8-0.1,1.5-0.1,2.3-0.2c0.6-0.1,1.1-0.1,1.7-0.1c0.8-0.1,1.5-0.1,2.3-0.2
			c0.5,0,1.1-0.1,1.6-0.1c0.7-0.1,1.5-0.1,2.2-0.2c0.5,0,1.1-0.1,1.6-0.1c0.7-0.1,1.5-0.1,2.2-0.2c0.5,0,1.1-0.1,1.6-0.1
			c0.7-0.1,1.5-0.1,2.2-0.1c0.5,0,1.1-0.1,1.6-0.1c0.7,0,1.5-0.1,2.2-0.1c0.5,0,1-0.1,1.5-0.1c0.7,0,1.4-0.1,2.2-0.1
			c0.5,0,1-0.1,1.5-0.1c0.7,0,1.4-0.1,2.1-0.1c0.5,0,1,0,1.5-0.1c0.7,0,1.4-0.1,2.1-0.1c0.5,0,1,0,1.5-0.1c0.7,0,1.4,0,2.1-0.1
			c0.5,0,1,0,1.4,0c0.7,0,1.4,0,2.1-0.1c0.5,0,0.9,0,1.4,0c0.7,0,1.4,0,2.1,0c0.5,0,0.9,0,1.4,0c0.7,0,1.4,0,2.1,0
			c0.4,0,0.9,0,1.3,0c0.7,0,1.4,0,2.1,0c0.4,0,0.9,0,1.3,0c0.7,0,1.4,0,2.1,0c0.4,0,0.8,0,1.2,0c0.7,0,1.4,0,2.1,0
			c0.4,0,0.8,0,1.2,0c0.7,0,1.4,0,2.1,0c0.4,0,0.7,0,1.1,0c0.7,0,1.4,0,2.1,0c0.4,0,0.7,0,1.1,0c0.7,0,1.4,0,2.1,0.1
			c0.3,0,0.7,0,1,0c0.7,0,1.4,0,2.1,0.1c0.3,0,0.6,0,0.9,0c0.7,0,1.4,0.1,2.2,0.1c0.3,0,0.5,0,0.8,0c0.7,0,1.5,0.1,2.2,0.1
			c0.2,0,0.5,0,0.7,0c0.8,0,1.5,0.1,2.3,0.1c0.2,0,0.4,0,0.6,0c0.8,0,1.6,0.1,2.4,0.1c0.1,0,0.3,0,0.4,0c0.8,0.1,1.6,0.1,2.4,0.2
			c0.1,0,0.2,0,0.3,0c0.9,0.1,1.8,0.1,2.7,0.2c0,0,0,0,0,0c9.8,0.8,18.4,1.9,25.5,3.2c0,0,0,0,0.1,0c0.6,0.1,1.2,0.2,1.8,0.3
			c0,0,0.1,0,0.1,0c0.6,0.1,1.1,0.2,1.7,0.3c0.1,0,0.1,0,0.2,0c0.5,0.1,1,0.2,1.5,0.3c0.1,0,0.2,0,0.3,0.1c0.5,0.1,0.9,0.2,1.4,0.3
			c0.1,0,0.2,0,0.3,0.1c0.4,0.1,0.9,0.2,1.3,0.3c0.1,0,0.2,0.1,0.3,0.1c0.4,0.1,0.8,0.2,1.2,0.3c0.1,0,0.2,0.1,0.3,0.1
			c0.4,0.1,0.7,0.2,1.1,0.3c0.1,0,0.2,0.1,0.3,0.1c0.3,0.1,0.7,0.2,1,0.3c0.1,0,0.2,0.1,0.3,0.1c0.3,0.1,0.6,0.2,0.9,0.3
			c0.1,0,0.2,0.1,0.3,0.1c0.3,0.1,0.6,0.2,0.9,0.3c0.1,0,0.2,0.1,0.3,0.1c0.3,0.1,0.5,0.2,0.8,0.3c0.1,0,0.2,0.1,0.3,0.1
			c0.2,0.1,0.5,0.2,0.7,0.3c0.1,0,0.2,0.1,0.3,0.1c0.2,0.1,0.4,0.2,0.6,0.3c0.1,0,0.2,0.1,0.3,0.1c0.2,0.1,0.4,0.2,0.6,0.3
			c0.1,0,0.2,0.1,0.3,0.1c0.2,0.1,0.3,0.2,0.5,0.3c0.1,0.1,0.2,0.1,0.3,0.2c0.1,0.1,0.3,0.2,0.4,0.2c0.1,0.1,0.2,0.1,0.3,0.2
			c0.1,0.1,0.2,0.2,0.4,0.2c0.1,0.1,0.2,0.1,0.2,0.2c0.1,0.1,0.2,0.2,0.3,0.2c0.1,0.1,0.1,0.1,0.2,0.2c0,0,0.1,0.1,0.1,0.1
			C2478.9,2792,2471.3,2799.6,2450.3,2809.9z"/>
	</g>
	<g id="main_x5F_gauche">
		<path fill="#6ECCDD" d="M2469.7,2926.1l-21.5-133.6l-4.5-1c-1.4-0.3-35.9-8-119.8,1.9c-83.9,9.9-125.2,30.2-126.9,31.1l-4.6,2.3
			l27.1,152c-38.4,40.4-62,95-62,154.9c0,92,55.1,173.8,140.3,208.5c0.8,0.3,1.7,0.5,2.6,0.5c1.5,0,3-0.5,4.3-1.5
			c1.9-1.5,2.9-4,2.5-6.4l-15.9-97c-0.2-1.5-1-2.9-2.1-3.9c-28.2-26.3-43.7-61.9-43.7-100.2c0-75.7,61.6-137.2,137.2-137.2
			c75.7,0,137.2,61.6,137.2,137.2c0,22.9-5.7,45.5-16.6,65.5c-0.7,1.3-1,2.9-0.7,4.4l15.8,96.6c0.4,2.4,2.1,4.5,4.4,5.3
			c2.3,0.9,4.9,0.4,6.8-1.2c49.7-42.9,78.2-105,78.2-170.5C2607.9,3040.5,2550.8,2960.2,2469.7,2926.1z"/>
		<path fill="#212121" d="M2325.6,2807c64.6-7.6,99.2-4.5,110.7-2.9l18.7,116.5c-2.9-1-5.8-1.9-8.7-2.7c0,0-0.1,0-0.1,0
			c-1.3-0.4-2.7-0.8-4-1.1c-0.3-0.1-0.5-0.1-0.8-0.2c-1.3-0.3-2.5-0.7-3.8-1c-0.3-0.1-0.6-0.2-1-0.2c-3.5-0.9-7.1-1.7-10.7-2.4
			c-0.8-0.2-1.7-0.3-2.5-0.5c-0.8-0.1-1.6-0.3-2.4-0.4c-0.9-0.2-1.9-0.3-2.8-0.5c-0.7-0.1-1.5-0.2-2.2-0.3c-1.1-0.2-2.2-0.3-3.3-0.5
			c-0.6-0.1-1.2-0.2-1.8-0.2c-1.7-0.2-3.4-0.4-5.1-0.6c0,0-0.1,0-0.2,0c-1.7-0.2-3.4-0.3-5.1-0.5c-0.5,0-1.1-0.1-1.6-0.1
			c-1.2-0.1-2.5-0.2-3.7-0.2c-0.6,0-1.2-0.1-1.8-0.1c-1.2-0.1-2.5-0.1-3.7-0.1c-0.5,0-1.1,0-1.6,0c-1.8,0-3.5-0.1-5.3-0.1
			c-1.9,0-3.7,0-5.6,0.1c-0.5,0-0.9,0-1.4,0c-1.4,0-2.9,0.1-4.3,0.2c-0.4,0-0.8,0-1.2,0.1c-1.5,0.1-3,0.2-4.5,0.3
			c-0.3,0-0.5,0-0.8,0.1c-1.7,0.1-3.4,0.3-5.2,0.5c0,0,0,0-0.1,0c-47.9,4.8-92.5,24.7-128.4,57.3l-23.6-132.5
			C2220.5,2829.3,2259.8,2814.8,2325.6,2807z"/>
		<path fill="#212121" d="M2529.9,3285.6l-13.4-81.9c11.2-21.4,17.1-45.5,17.1-69.9c0-83.2-67.7-150.8-150.8-150.8
			c-83.2,0-150.9,67.7-150.9,150.8c0,41.4,16.4,79.8,46.3,108.6l13.5,82.3c-73.6-35-120.4-108.6-120.4-190.9
			c0-114.6,91.6-208.2,205.5-211.4c0.2,0,0.4,0,0.6,0c1.8,0,3.6-0.1,5.4-0.1c1.8,0,3.5,0,5.3,0.1c0.6,0,1.1,0,1.7,0.1
			c1.2,0,2.4,0.1,3.5,0.1c0.7,0,1.3,0.1,2,0.1c1.1,0.1,2.1,0.1,3.2,0.2c0.7,0.1,1.5,0.1,2.2,0.2c1,0.1,2,0.2,3,0.3
			c0.8,0.1,1.5,0.2,2.3,0.2c0.9,0.1,1.9,0.2,2.8,0.3c0.8,0.1,1.6,0.2,2.5,0.3c0.9,0.1,1.7,0.2,2.6,0.4c0.9,0.1,1.8,0.3,2.7,0.4
			c0.8,0.1,1.5,0.3,2.3,0.4c1,0.2,1.9,0.3,2.9,0.5c0.7,0.1,1.3,0.3,2,0.4c1.1,0.2,2.1,0.4,3.2,0.7c0.5,0.1,1.1,0.2,1.6,0.3
			c1.2,0.3,2.4,0.5,3.6,0.8c0.4,0.1,0.7,0.2,1.1,0.3c1.3,0.3,2.6,0.7,4,1c0.2,0.1,0.4,0.1,0.6,0.2c1.5,0.4,3,0.8,4.4,1.2
			c0,0,0,0,0,0c6.4,1.9,12.7,4.1,19,6.6l0.3,0.1c77.8,31.3,132.9,107.5,132.9,196.3C2594.2,3191.2,2570.9,3245.9,2529.9,3285.6z"/>
		<circle fill="#212121" cx="2382.7" cy="3134.1" r="134.6"/>
	</g>
	<g id="bras_x5F_droit">
		<path fill="#6ECCDD" d="M1079.6,1908.7h-89.2l-1.2,0.1c-4.6,0.8-113.2,20.2-143.9,95.6c-29.1,71.6-216.1,425.6-218,429.2l-0.5,1
			l-59.7,352.1c0,0.1,0,0.2,0,0.3l0,0c0,0,0,0,0,0c-2.1,14.1,24.4,29.2,47,39.3l8.6,3.9l2.7-25.8c15.2-1.3,60.6-4,113.8,3
			c59.9,7.9,101.1,22.3,114.6,27.5l-4.2,28.3l9-1.2c21.7-2.9,44.9-13.6,55.1-24.2l3.2,2.5L1079.6,1908.7z"/>
		<path fill="#212121" d="M639.9,2439c13.1-24.7,189.2-358.3,218.1-429.4c26.7-65.8,124.8-85.7,133-87.2h72.4l-155.6,890.5
			c-35.6-23.6-144.9-40.5-159.7-42.7c-1.6-0.2-3.1-0.5-4.7-0.7c-0.5-0.1-0.9-0.1-1.4-0.2c-1.2-0.2-2.4-0.3-3.6-0.5
			c-0.4-0.1-0.8-0.1-1.2-0.2c-1.6-0.2-3.1-0.4-4.7-0.6c-0.4,0-0.8-0.1-1.2-0.1c-1.2-0.1-2.4-0.3-3.7-0.4c-0.5-0.1-1-0.1-1.5-0.2
			c-1.4-0.2-2.8-0.3-4.3-0.4c-0.2,0-0.4,0-0.6-0.1c-1.6-0.2-3.2-0.3-4.7-0.5c-0.5,0-1-0.1-1.5-0.1c-1.2-0.1-2.4-0.2-3.7-0.3
			c-0.4,0-0.9-0.1-1.3-0.1c-1.6-0.1-3.2-0.3-4.8-0.4c-0.3,0-0.7,0-1-0.1c-1.3-0.1-2.6-0.2-3.9-0.3c-0.5,0-0.9-0.1-1.4-0.1
			c-1.5-0.1-3-0.2-4.4-0.3c-0.1,0-0.3,0-0.4,0c-1.6-0.1-3.2-0.2-4.9-0.2c-0.4,0-0.8,0-1.1-0.1c-1.3-0.1-2.7-0.1-4-0.2
			c-0.3,0-0.7,0-1,0c-1.6-0.1-3.3-0.1-4.9-0.2c-0.2,0-0.3,0-0.5,0c-1.5,0-2.9-0.1-4.4-0.1c-0.3,0-0.7,0-1,0c-1.5,0-3.1-0.1-4.6-0.1
			c-0.1,0-0.1,0-0.2,0c-1.6,0-3.2,0-4.8,0c-0.1,0-0.2,0-0.3,0c-0.4,0-0.8,0-1.2,0c-0.6,0-1.2,0-1.8,0c-0.5,0-1,0-1.5,0
			c-1.1,0-2.3,0-3.4,0c-0.5,0-1,0-1.5,0c-0.6,0-1.2,0-1.8,0c-0.5,0-1,0-1.5,0c-0.6,0-1.2,0-1.8,0c-0.5,0-1,0-1.5,0
			c-0.6,0-1.2,0-1.8,0.1c-0.5,0-1,0-1.4,0.1c-0.6,0-1.2,0-1.8,0.1c-0.5,0-0.9,0-1.4,0.1c-1.1,0.1-2.2,0.1-3.3,0.2
			c-0.4,0-0.9,0-1.3,0.1c-0.6,0-1.1,0.1-1.7,0.1c-0.5,0-0.9,0.1-1.4,0.1c-0.6,0-1.1,0.1-1.6,0.1c-0.5,0-0.9,0.1-1.4,0.1
			c-0.5,0-1.1,0.1-1.6,0.1c-0.5,0-0.9,0.1-1.4,0.1c-0.5,0-1.1,0.1-1.6,0.1c-0.5,0-0.9,0.1-1.4,0.1c-0.9,0.1-1.8,0.2-2.6,0.3
			c-0.5,0.1-1,0.1-1.5,0.2c-0.5,0.1-1,0.1-1.4,0.2c-0.5,0.1-0.9,0.1-1.4,0.2c-0.5,0.1-0.9,0.1-1.4,0.2c-0.5,0.1-0.9,0.1-1.4,0.2
			c-0.5,0.1-0.9,0.1-1.4,0.2c-0.5,0.1-0.9,0.1-1.3,0.2c-0.4,0.1-0.9,0.1-1.3,0.2c-0.5,0.1-1,0.1-1.4,0.2c-0.4,0.1-0.8,0.1-1.2,0.2
			c-0.8,0.1-1.6,0.3-2.4,0.4c-0.3,0.1-0.7,0.1-1,0.2c-0.5,0.1-1,0.2-1.5,0.3c-0.4,0.1-0.7,0.1-1.1,0.2c-0.4,0.1-0.9,0.2-1.3,0.3
			c-0.4,0.1-0.7,0.1-1.1,0.2c-0.4,0.1-0.9,0.2-1.3,0.3c-0.3,0.1-0.7,0.1-1,0.2c-0.5,0.1-0.9,0.2-1.4,0.3c-0.3,0.1-0.6,0.1-0.9,0.2
			c-0.7,0.2-1.4,0.3-2.1,0.5c-0.2,0.1-0.4,0.1-0.6,0.2c-0.5,0.1-1,0.3-1.5,0.4c-0.3,0.1-0.5,0.2-0.8,0.2c-0.4,0.1-0.8,0.2-1.2,0.4
			c-0.3,0.1-0.5,0.2-0.8,0.3c-0.4,0.1-0.8,0.3-1.2,0.4c-0.3,0.1-0.5,0.2-0.8,0.3c-0.4,0.1-0.8,0.3-1.2,0.4c-0.2,0.1-0.4,0.1-0.6,0.2
			c-0.1,0-0.1,0-0.2,0.1L639.9,2439z"/>
		<path fill="#212121" d="M864.1,2824.4c-1.9-0.8-47.5-20.5-123.1-30.5c-27.9-3.7-53.4-4.8-73.9-4.8c-28.6,0-47.4,2.1-48.7,2.3
			l-5.4,0.6l-1.9,17.9c-21.9-10.7-29.2-18.4-30.4-20.5c0.1-0.1,0.1-0.1,0.2-0.2c0,0,0.1-0.1,0.1-0.1c0.1-0.1,0.2-0.2,0.4-0.3
			c0.1,0,0.1-0.1,0.2-0.1c0.1-0.1,0.3-0.2,0.4-0.3c0.1,0,0.1-0.1,0.2-0.1c0.1-0.1,0.3-0.2,0.5-0.3c0.1,0,0.1-0.1,0.2-0.1
			c0.2-0.1,0.3-0.2,0.5-0.3c0.1,0,0.2-0.1,0.3-0.1c0.2-0.1,0.4-0.2,0.6-0.3c0.1,0,0.2-0.1,0.3-0.1c0.2-0.1,0.4-0.2,0.6-0.3
			c0.1-0.1,0.2-0.1,0.4-0.2c0.2-0.1,0.4-0.2,0.6-0.2c0.1-0.1,0.3-0.1,0.4-0.2c0.2-0.1,0.4-0.1,0.6-0.2c0.2-0.1,0.3-0.1,0.5-0.2
			c0.2-0.1,0.4-0.1,0.5-0.2c0.2-0.1,0.4-0.1,0.7-0.2c0.1,0,0.2-0.1,0.3-0.1c1.9-0.6,4.1-1.2,6.6-1.8c0.1,0,0.1,0,0.2-0.1
			c0.4-0.1,0.9-0.2,1.3-0.3c0.1,0,0.2-0.1,0.3-0.1c0.4-0.1,0.9-0.2,1.3-0.3c0.1,0,0.3-0.1,0.4-0.1c0.4-0.1,0.8-0.2,1.3-0.3
			c0.2,0,0.4-0.1,0.6-0.1c0.4-0.1,0.8-0.2,1.2-0.2c0.2,0,0.4-0.1,0.6-0.1c0.4-0.1,0.8-0.1,1.2-0.2c0.2,0,0.5-0.1,0.7-0.1
			c0.4-0.1,0.8-0.1,1.2-0.2c0.3,0,0.5-0.1,0.8-0.1c0.4-0.1,0.8-0.1,1.2-0.2c0.3,0,0.6-0.1,0.9-0.1c0.4-0.1,0.8-0.1,1.2-0.2
			c0.3,0,0.7-0.1,1-0.1c0.4-0.1,0.8-0.1,1.2-0.2c0.4,0,0.7-0.1,1.1-0.1c0.4-0.1,0.8-0.1,1.2-0.1c0.4,0,0.8-0.1,1.2-0.1
			c0.4,0,0.8-0.1,1.1-0.1c0.4,0,0.8-0.1,1.2-0.1c0.4,0,0.7-0.1,1.1-0.1c0.5-0.1,0.9-0.1,1.4-0.1c0.3,0,0.7-0.1,1-0.1
			c0.5,0,1-0.1,1.5-0.1c0.3,0,0.7-0.1,1-0.1c0.5,0,1-0.1,1.6-0.1c0.3,0,0.7-0.1,1-0.1c0.6,0,1.1-0.1,1.7-0.1c0.3,0,0.6,0,0.9-0.1
			c0.6,0,1.2-0.1,1.8-0.1c0.3,0,0.6,0,0.9-0.1c0.6,0,1.3-0.1,1.9-0.1c0.3,0,0.6,0,0.9-0.1c0.7,0,1.3-0.1,2-0.1c0.3,0,0.5,0,0.8,0
			c0.7,0,1.4-0.1,2.1-0.1c0.3,0,0.5,0,0.8,0c0.7,0,1.5-0.1,2.2-0.1c0.2,0,0.5,0,0.7,0c0.8,0,1.5-0.1,2.3-0.1c0.2,0,0.4,0,0.7,0
			c0.8,0,1.6-0.1,2.4-0.1c0.2,0,0.4,0,0.6,0c0.8,0,1.7,0,2.5-0.1c0.2,0,0.4,0,0.6,0c0.9,0,1.8,0,2.6-0.1c0.2,0,0.3,0,0.5,0
			c0.9,0,1.8,0,2.7,0c0.2,0,0.3,0,0.5,0c0.9,0,1.9,0,2.9,0c0.1,0,0.3,0,0.4,0c1,0,2,0,3,0c0.1,0,0.2,0,0.4,0c1,0,2,0,3.1,0
			c0.1,0,0.2,0,0.3,0c1,0,2.1,0,3.1,0c0.1,0,0.2,0,0.3,0c1.1,0,2.2,0,3.2,0.1c0.1,0,0.2,0,0.2,0c1.1,0,2.2,0.1,3.4,0.1
			c0.1,0,0.1,0,0.2,0c1.1,0,2.3,0.1,3.4,0.1c0.1,0,0.1,0,0.2,0c1.2,0,2.3,0.1,3.5,0.1c0,0,0.1,0,0.1,0c1.2,0.1,2.4,0.1,3.6,0.2
			c0,0,0,0,0.1,0c17.4,0.9,36.2,2.6,56.1,5.6c66.3,9.8,132,31.1,156.5,46c-5.8,5.1-19.2,13.1-36.8,17.2l3-20.4L864.1,2824.4z"/>
	</g>
	<g id="main_x5F_droit">
		<path fill="#6ECCDD" d="M841.8,2978.8l27.1-152l-4.6-2.3c-1.7-0.9-43.1-21.1-126.9-31.1c-83.9-9.9-118.4-2.3-119.8-1.9l-4.5,1
			l-21.5,133.6c-81.1,34.1-138.2,114.3-138.2,207.6c0,65.5,28.5,127.7,78.3,170.5c1.9,1.6,4.5,2.1,6.8,1.2c2.3-0.8,4-2.9,4.4-5.3
			l15.8-96.6c0.2-1.5,0-3-0.7-4.4c-10.9-20-16.6-42.6-16.6-65.5c0-75.7,61.6-137.2,137.2-137.2s137.2,61.6,137.2,137.2
			c0,38.3-15.5,73.9-43.7,100.2c-1.1,1-1.8,2.4-2.1,3.9l-15.9,97c-0.4,2.4,0.5,4.9,2.5,6.4c1.2,1,2.7,1.5,4.3,1.5
			c0.9,0,1.7-0.2,2.6-0.5c85.2-34.7,140.3-116.6,140.3-208.5C903.8,3073.8,880.2,3019.2,841.8,2978.8z"/>
		<path fill="#212121" d="M625.1,2804.1c11.5-1.6,46.1-4.7,110.7,2.9c65.8,7.8,105.1,22.3,117.8,27.7L830,2967.2
			c-35.8-32.6-80.5-52.5-128.4-57.3c0,0,0,0-0.1,0c-1.7-0.2-3.4-0.3-5.2-0.5c-0.3,0-0.5,0-0.8-0.1c-1.5-0.1-3-0.2-4.5-0.3
			c-0.4,0-0.8,0-1.2-0.1c-1.4-0.1-2.9-0.1-4.3-0.2c-0.5,0-0.9,0-1.4,0c-1.9,0-3.7-0.1-5.6-0.1c-1.8,0-3.5,0-5.3,0.1
			c-0.6,0-1.1,0-1.7,0.1c-1.2,0-2.5,0.1-3.7,0.1c-0.6,0-1.2,0.1-1.9,0.1c-1.2,0.1-2.4,0.1-3.6,0.2c-0.6,0-1.2,0.1-1.7,0.1
			c-1.5,0.1-3.1,0.3-4.6,0.4c-0.3,0-0.6,0.1-0.9,0.1c-1.6,0.2-3.2,0.3-4.8,0.5c-0.7,0.1-1.4,0.2-2.1,0.3c-1,0.1-2,0.3-2.9,0.4
			c-0.8,0.1-1.7,0.3-2.5,0.4c-0.8,0.1-1.6,0.3-2.5,0.4c-0.9,0.2-1.8,0.3-2.7,0.5c-0.6,0.1-1.2,0.2-1.9,0.4
			c-3.9,0.8-7.8,1.6-11.7,2.6c-0.1,0-0.3,0.1-0.4,0.1c-1.4,0.3-2.7,0.7-4.1,1.1c-0.1,0-0.3,0.1-0.4,0.1c-4.4,1.2-8.7,2.5-13,4
			L625.1,2804.1z"/>
		<path fill="#212121" d="M769.7,3324.7l13.5-82.3c29.9-28.7,46.3-67.2,46.3-108.6c0-83.2-67.7-150.8-150.8-150.8
			s-150.8,67.7-150.8,150.8c0,24.3,5.9,48.5,17.1,69.9l-13.4,81.9c-41.1-39.8-64.4-94.4-64.4-151.8c0-88.8,55.1-165,132.9-196.3
			l0.3-0.1c6.2-2.5,12.5-4.7,18.9-6.5c0,0,0.1,0,0.1,0c1.4-0.4,2.9-0.8,4.3-1.2c0.2-0.1,0.5-0.1,0.7-0.2c1.3-0.3,2.6-0.7,3.9-1
			c0.4-0.1,0.8-0.2,1.2-0.3c1.1-0.3,2.3-0.5,3.5-0.8c0.6-0.1,1.1-0.2,1.7-0.4c1-0.2,2.1-0.4,3.1-0.6c0.7-0.1,1.4-0.3,2.1-0.4
			c0.9-0.2,1.9-0.3,2.8-0.5c0.8-0.1,1.6-0.3,2.4-0.4c0.9-0.1,1.7-0.3,2.6-0.4c0.9-0.1,1.8-0.3,2.7-0.4c0.8-0.1,1.6-0.2,2.4-0.3
			c1-0.1,1.9-0.2,2.9-0.3c0.8-0.1,1.5-0.2,2.3-0.2c1-0.1,2-0.2,3-0.3c0.7-0.1,1.4-0.1,2.1-0.2c1.1-0.1,2.1-0.1,3.2-0.2
			c0.7,0,1.3-0.1,2-0.1c1.2-0.1,2.4-0.1,3.6-0.1c0.6,0,1.1,0,1.7-0.1c1.7,0,3.5-0.1,5.3-0.1c1.8,0,3.6,0,5.4,0.1c0.2,0,0.4,0,0.6,0
			c113.8,3.2,205.5,96.8,205.5,211.4C890.1,3216,843.3,3289.7,769.7,3324.7z"/>
		<circle fill="#212121" cx="678.7" cy="3134.1" r="134.6"/>
	</g>
	<g id="energie">
		<path fill="#6ECCDD" d="M1530.7,1988.7c-78.3,0-141.7,63.5-141.7,141.7s63.5,141.7,141.7,141.7c78.3,0,141.7-63.5,141.7-141.7
			S1609,1988.7,1530.7,1988.7z M1530.7,2258c-70.4,0-127.6-57.1-127.6-127.6s57.1-127.6,127.6-127.6c70.4,0,127.6,57.1,127.6,127.6
			S1601.2,2258,1530.7,2258z"/>
		<circle fill="#DAF0F6" cx="1530.7" cy="2130.4" r="127.6"/>
	</g>
	<g id="tete">
		<path id="Head" fill="#6ECCDD" d="M2048,1082l-19.5-22.2c0.5-10.6,1-47.4-5.1-148.3c-5.7-93.7-42.6-136.9-44.2-138.7l-1.2-1.1
			c-1.7-1.3-43.4-32.1-130.2-63.7c-74.8-27.2-114.7-30-125.7-30.2c-6.5-5.1-25.9-19.4-43.2-22c-19-2.8-132.8-3.8-137.7-3.8h-20.7
			c-4.8,0-118.6,1-137.7,3.8c-17.4,2.5-36.8,16.9-43.3,22c-11,0.2-50.9,3-125.7,30.2c-86.9,31.6-128.5,62.4-130.2,63.7l-1.2,1.1
			c-1.6,1.8-38.5,45-44.2,138.7c-6.1,100.9-5.6,137.7-5.1,148.3l-19.5,22.1c-5.5,6.2-8.5,14.3-8.5,22.6v265.1
			c0,7.8,2.7,15.4,7.7,21.5l20.3,24.8l-15.1,292.3c0,28.3,19,53.7,46.1,61.6l254.9,75.3l0.4-0.5c19.4,3.3,99.1,15.3,212.4,15.3
			c113.1,0,191.2-12.1,210.4-15.3l0.4,0.5l254.9-75.3c27.2-8,46.1-33.3,46.1-62l-15.1-291.8l20.3-24.8c5-6.1,7.7-13.7,7.7-21.6
			v-265.1C2056.5,1096.1,2053.5,1088.2,2048,1082z M1385,671.5c14.4-2.1,94.9-3.3,135.4-3.6h20.6c40.6,0.3,121.1,1.5,135.5,3.6
			c11.3,1.7,25.9,11.3,33.8,17.3l-16,65.6c-2.9,7.2-9.8,12-17.5,12.1h-291.9c-7.8-0.1-14.7-4.9-17.2-11l-16.4-66.7
			C1359.1,682.8,1373.6,673.2,1385,671.5z M1219.2,722.9c65.2-23.7,103.1-28.2,116.8-29.1l16.4,66.5c5.3,13.2,17.9,21.9,32.3,22.1
			h292.1c14.3-0.2,26.9-8.9,32.5-23.2l16.1-65.4c13.7,0.8,51.6,5.4,116.8,29.1c70.6,25.7,110.8,51,122.4,58.9l-22.5,173
			c-13.1,4.2-56.7,16.7-148.8,31.1c-161.7,19.8-251,16.7-252.2,16.7l-20.9,0c-0.9,0-90.3,3-251.6-16.7
			c-92.3-14.4-135.9-26.9-149.1-31.1l-22.6-173C1108.4,773.9,1148.6,748.6,1219.2,722.9z M1054,912.4c3.4-55.4,18.4-92.2,29.1-111.8
			l21.6,166l4.5,1.7c1.6,0.6,41.4,15.5,157,33.5c124.1,15.2,206.2,17,238.5,17c10.2,0,15.4-0.2,15.6-0.2l20.3,0
			c0.9,0,91.4,3.1,254.7-16.9c115.3-18,155.1-32.8,156.7-33.5l4.5-1.7l21.6-166c10.7,19.7,25.7,56.4,29.1,111.8
			c6.3,103.6,5.5,139.1,5.1,147.3c-6.1,8.1-32.7,42-63.1,59l-31.7-89.8l-6.7,0.9c-1.5,0.2-156.9,3.5-369.9,5.1h-20.6
			c-213.1-1.5-368.4-4.9-369.9-5.1l-6.7-0.9l-31.7,89.8c-30.5-17-57-50.9-63.1-59C1048.6,1051.5,1047.8,1016,1054,912.4z
			 M1021,1221.1c26.5,14.7,94.3,55,150,112.3c62.1,63.9,111.2,158.4,122.5,181.1l-44.7,44l-55.1-13.2c5.3-20.3,11.1-73.2-40.4-145.8
			c-56.7-79.7-118.1-131.1-132.3-142.5V1221.1z M1297.1,1533.4l11.2,101l-57.8,62.8l-90.1-72.4l0.1,0l6.6-48.3l18.7-16.7l68,16.3
			L1297.1,1533.4z M1028.6,1385.3c-5-6.1-7.7-13.6-7.7-21.5v-86c23.1,19.8,73.4,66.3,119.3,130.9c54.2,76.3,39.6,128.7,36.4,137.6
			l-24.8,22.1l-6.1,44.7l-102.7-82.5l6.2-120.1L1028.6,1385.3z M1313.5,1826.8l-245-72.4c-20.4-6-34.7-25-34.7-45.8l8.2-158.2
			l210,168.7l63.5-68.9l59.4,104.7L1313.5,1826.8z M1608.3,1620.2l-32.7-39.2h-89.9l-32.7,39.2l-129.4,8.5l-11.6-104.5h436.2
			l-10.7,104.5L1608.3,1620.2z M1731.5,1644.3l-59.4,103.5h-282.7l-59.4-103.5l131-8.6l32.3-38.7h74.9l32.3,38.7L1731.5,1644.3z
			 M1531.7,1843.9c-98.7,0-171.3-9.2-200.2-13.6l56.9-66.5H1673l56.9,66.6C1701.4,1834.7,1630.1,1843.9,1531.7,1843.9z
			 M1992.9,1754.4l-245,72.4l-61.4-71.9l59.8-104.3l63.1,68.4l210-168.7l8.2,157.8C2027.5,1729.4,2013.3,1748.4,1992.9,1754.4z
			 M1752.5,1633.7l11.2-104.2l44,29.7l68-0.3l18.7,17.4l6.6,48.3l-90.1,72.4L1752.5,1633.7z M2040.5,1363.8c0,7.9-2.7,15.5-7.7,21.6
			l-20.6,25.2l6.2,120.1l-102.7,82.6l-6.1-44.7l-24.8-22.1c-3.2-9-17.7-61.4,36.4-137.6c45.9-64.6,96.2-111.1,119.3-130.9V1363.8z
			 M2040.5,1256.9c-14.3,11.4-75.7,62.8-132.3,142.5c-49.8,70-46,121.8-41,143.6l-54.5,0.2l-44.2-29.9c12.2-24.4,60.8-116.9,122-180
			c55.7-57.4,123.5-97.7,150-112.3V1256.9z M2040.5,1202.9c-19.1,10-97,53-161.5,119.4c-63.4,65.3-112.1,158.5-124.8,184l-3.9-0.4
			l-0.2,2.3h-441.8c-10.8-21.8-60.4-118.5-125.8-185.9c-64.5-66.4-142.3-109.4-161.5-119.4v-92.4c0-8.3,3-16.3,8.5-22.6l11.2-12.7
			c13.9,17.5,49.8,58.4,88.4,67.5c46.5,10.9,251.9,8.8,260.7,8.7l3.5,0l58.3-64.6l68.8-3l20.3,0l69.2,3l58.3,64.6l3.5,0
			c2.5,0,21.6,0.2,48.6,0.2c66,0,179.1-1.2,212.1-9c38.6-9.1,74.5-50,88.4-67.5l11.3,12.8c5.4,6.2,8.5,14.2,8.5,22.4V1202.9z"/>
		<path fill="#212121" d="M1385,671.5c14.4-2.1,94.9-3.3,135.4-3.6h20.6c40.6,0.3,121.1,1.5,135.5,3.6c11.3,1.7,25.9,11.3,33.8,17.3
			l-16,65.6c-2.9,7.2-9.8,12-17.5,12.1h-291.9c-7.8-0.1-14.7-4.9-17.2-11l-16.4-66.7C1359.1,682.8,1373.6,673.2,1385,671.5z"/>
		<path fill="#212121" d="M1219.2,722.9c65.2-23.7,103.1-28.2,116.8-29.1l16.4,66.5c5.3,13.2,17.9,21.9,32.3,22.1h292.1
			c14.3-0.2,26.9-8.9,32.5-23.2l16.1-65.4c13.7,0.8,51.6,5.4,116.8,29.1c70.6,25.7,110.8,51,122.4,58.9l-22.5,173
			c-13.1,4.2-56.7,16.7-148.8,31.1c-161.7,19.8-251,16.7-252.2,16.7l-20.9,0c-0.9,0-90.3,3-251.6-16.7
			c-92.3-14.4-135.9-26.9-149.1-31.1l-22.6-173C1108.4,773.9,1148.6,748.6,1219.2,722.9z"/>
		<path fill="#212121" d="M1054,912.4c3.4-55.4,18.4-92.2,29.1-111.8l21.6,166l4.5,1.7c1.6,0.6,41.4,15.5,157,33.5
			c124.1,15.2,206.2,17,238.5,17c10.2,0,15.4-0.2,15.6-0.2l20.3,0c0.9,0,91.4,3.1,254.7-16.9c115.3-18,155.1-32.8,156.7-33.5
			l4.5-1.7l21.6-166c10.7,19.7,25.7,56.4,29.1,111.8c6.3,103.6,5.5,139.1,5.1,147.3c-6.1,8.1-32.7,42-63.1,59l-31.7-89.8l-6.7,0.9
			c-1.5,0.2-156.9,3.5-369.9,5.1h-20.6c-213.1-1.5-368.4-4.9-369.9-5.1l-6.7-0.9l-31.7,89.8c-30.5-17-57-50.9-63.1-59
			C1048.6,1051.5,1047.8,1016,1054,912.4z"/>
		<path fill="#212121" d="M1021,1221.1c26.5,14.7,94.3,55,150,112.3c62.1,63.9,111.2,158.4,122.5,181.1l-44.7,44l-55.1-13.2
			c5.3-20.3,11.1-73.2-40.4-145.8c-56.7-79.7-118.1-131.1-132.3-142.5V1221.1z"/>
		<polygon fill="#212121" points="1297.1,1533.4 1308.3,1634.4 1250.4,1697.2 1160.3,1624.8 1160.4,1624.8 1167,1576.5 
			1185.7,1559.8 1253.7,1576.1 		"/>
		<path fill="#212121" d="M1028.6,1385.3c-5-6.1-7.7-13.6-7.7-21.5v-86c23.1,19.8,73.4,66.3,119.3,130.9
			c54.2,76.3,39.6,128.7,36.4,137.6l-24.8,22.1l-6.1,44.7l-102.7-82.5l6.2-120.1L1028.6,1385.3z"/>
		<path fill="#212121" d="M1313.5,1826.8l-245-72.4c-20.4-6-34.7-25-34.7-45.8l8.2-158.2l210,168.7l63.5-68.9l59.4,104.7
			L1313.5,1826.8z"/>
		<polygon fill="#212121" points="1608.3,1620.2 1575.6,1581 1485.8,1581 1453.1,1620.2 1323.7,1628.7 1312.2,1524.2 1748.3,1524.2 
			1737.6,1628.7 		"/>
		<polygon fill="#212121" points="1731.5,1644.3 1672.1,1747.8 1389.3,1747.8 1329.9,1644.3 1461,1635.7 1493.3,1597 1568.1,1597 
			1600.4,1635.7 		"/>
		<path fill="#212121" d="M1531.7,1843.9c-98.7,0-171.3-9.2-200.2-13.6l56.9-66.5H1673l56.9,66.6
			C1701.4,1834.7,1630.1,1843.9,1531.7,1843.9z"/>
		<path fill="#212121" d="M1992.9,1754.4l-245,72.4l-61.4-71.9l59.8-104.3l63.1,68.4l210-168.7l8.2,157.8
			C2027.5,1729.4,2013.3,1748.4,1992.9,1754.4z"/>
		<polygon fill="#212121" points="1752.5,1633.7 1763.8,1529.6 1807.7,1559.3 1875.7,1559 1894.5,1576.5 1901.1,1624.8 1811,1697.2 
					"/>
		<path fill="#212121" d="M2040.5,1363.8c0,7.9-2.7,15.5-7.7,21.6l-20.6,25.2l6.2,120.1l-102.7,82.6l-6.1-44.7l-24.8-22.1
			c-3.2-9-17.7-61.4,36.4-137.6c45.9-64.6,96.2-111.1,119.3-130.9V1363.8z"/>
		<path fill="#212121" d="M2040.5,1256.9c-14.3,11.4-75.7,62.8-132.3,142.5c-49.8,70-46,121.8-41,143.6l-54.5,0.2l-44.2-29.9
			c12.2-24.4,60.8-116.9,122-180c55.7-57.4,123.5-97.7,150-112.3V1256.9z"/>
		<path fill="#212121" d="M2040.5,1202.9c-19.1,10-97,53-161.5,119.4c-63.4,65.3-112.1,158.5-124.8,184l-3.9-0.4l-0.2,2.3h-441.8
			c-10.8-21.8-60.4-118.5-125.8-185.9c-64.5-66.4-142.3-109.4-161.5-119.4v-92.4c0-8.3,3-16.3,8.5-22.6l11.2-12.7
			c13.9,17.5,49.8,58.4,88.4,67.5c46.5,10.9,251.9,8.8,260.7,8.7l3.5,0l58.3-64.6l68.8-3l20.3,0l69.2,3l58.3,64.6l3.5,0
			c2.5,0,21.6,0.2,48.6,0.2c66,0,179.1-1.2,212.1-9c38.6-9.1,74.5-50,88.4-67.5l11.3,12.8c5.4,6.2,8.5,14.2,8.5,22.4V1202.9z"/>
		<g id="yeux">
			<path fill="#FFFFFF" d="M1896.8,1127.4l-213.3,2.5l-33.9-46.5c-6.8-9.3-2.9-17.4,8.5-18l238.6-13.5l18.8,47.6
				C1920.8,1112.8,1911.1,1127.2,1896.8,1127.4z"/>
			<path fill="#FFFFFF" d="M1411.8,1083.4l-33.9,46.5l-213.3-2.5c-14.3-0.2-24-14.6-18.8-27.9l18.8-47.6l238.6,13.5
				C1414.8,1066,1418.6,1074.1,1411.8,1083.4z"/>
		</g>
	</g>
</g>
</svg>
