<?xml version="1.0" encoding="UTF-8" standalone="no"?>
<svg xmlns="http://www.w3.org/2000/svg"
     xmlns:xlink="http://www.w3.org/1999/xlink" xmlns:ev="http://www.w3.org/2001/xml-events"
     version="1.1" baseProfile="full"
>

  <style
     type="text/css"
     media="screen"
     id="style839"><![CDATA[  
    .portal-foreground {  
        fill: black;  
        stroke: black;  
    }
    .portal {  
        width: 277px;
        height: 190px;
    }
    ]]></style>
<defs>
<symbol id="portal" class="portal"  viewBox="0 0 277 190" preserveAspectRatio="xMidYMid meet">-->
  <g
     id="g1544">
    <g
       id="g1550" />
  </g>

  <!-- open -->
  <path
     class="portal-foreground"
     d="M 180.887,115.236 L 180.256,139.69 180.887,139.611 z"
     style="     stroke-width:1.0;     stroke-linecap:round;stroke-linejoin:round"
     id="path1155" />
  <path
     class="portal-foreground"
     d="M 180.887,66.4872 L 180.256,115.26 180.887,115.236 z"
     style="     stroke-width:1.0;     stroke-linecap:round;stroke-linejoin:round"
     id="path1157" />
  <path
     class="portal-foreground"
     d="M 180.887,58.3623 L 180.256,66.3992 180.887,66.4872 z"
     style="     stroke-width:1.0;     stroke-linecap:round;stroke-linejoin:round"
     id="path1159" />
  <path
     class="portal-foreground"
     d="M 180.256,115.26 L 180.256,139.69 180.887,115.236 z"
     style="     stroke-width:1.0;     stroke-linecap:round;stroke-linejoin:round"
     id="path1161" />
  <path
     class="portal-foreground"
     d="M 180.256,66.3992 L 180.256,115.26 180.887,66.4872 z"
     style="     stroke-width:1.0;     stroke-linecap:round;stroke-linejoin:round"
     id="path1163" />
  <path
     class="portal-foreground"
     d="M 180.256,58.2558 L 180.256,66.3992 180.887,58.3623 z"
     style="     stroke-width:1.0;     stroke-linecap:round;stroke-linejoin:round"
     id="path1165" />
  <path
     class="portal-foreground"
     d="M 180.887,139.611 L 186.447,115.657 180.887,115.236 z"
     style="     stroke-width:1.0;     stroke-linecap:round;stroke-linejoin:round"
     id="path1179" />
  <path
     class="portal-foreground"
     d="M 180.887,115.236 L 186.447,64.905 180.887,66.4872 z"
     style="     stroke-width:1.0;     stroke-linecap:round;stroke-linejoin:round"
     id="path1181" />
  <path
     class="portal-foreground"
     d="M 180.887,66.4872 L 186.447,56.4464 180.887,58.3623 z"
     style="     stroke-width:1.0;     stroke-linecap:round;stroke-linejoin:round"
     id="path1183" />
  <path
     class="portal-foreground"
     d="M 180.256,139.69 L 185.803,141.118 180.887,139.611 z"
     style="     stroke-width:1.0;     stroke-linecap:round;stroke-linejoin:round"
     id="path1185" />
  <path
     class="portal-foreground"
     d="M 180.256,58.2558 L 180.887,58.3623 185.803,56.331 z"
     style="     stroke-width:1.0;     stroke-linecap:round;stroke-linejoin:round"
     id="path1187" />
  <path
     class="portal-foreground"
     d="M 180.256,139.69 L 180.256,115.26 185.803,115.682 z"
     style="     stroke-width:1.0;     stroke-linecap:round;stroke-linejoin:round"
     id="path1195" />
  <path
     class="portal-foreground"
     d="M 180.256,115.26 L 180.256,66.3992 185.803,64.8097 z"
     style="     stroke-width:1.0;     stroke-linecap:round;stroke-linejoin:round"
     id="path1197" />
  <path
     class="portal-foreground"
     d="M 180.256,66.3992 L 180.256,58.2558 185.803,56.331 z"
     style="     stroke-width:1.0;     stroke-linecap:round;stroke-linejoin:round"
     id="path1199" />
  <path
     class="portal-foreground"
     d="M 186.447,141.033 L 186.447,115.657 180.887,139.611 z"
     style="     stroke-width:1.0;     stroke-linecap:round;stroke-linejoin:round"
     id="path1211" />
  <path
     class="portal-foreground"
     d="M 186.447,115.657 L 186.447,64.905 180.887,115.236 z"
     style="     stroke-width:1.0;     stroke-linecap:round;stroke-linejoin:round"
     id="path1213" />
  <path
     class="portal-foreground"
     d="M 186.447,64.905 L 186.447,56.4464 180.887,66.4872 z"
     style="     stroke-width:1.0;     stroke-linecap:round;stroke-linejoin:round"
     id="path1215" />
  <path
     class="portal-foreground"
     d="M 180.887,139.611 L 185.803,141.118 186.447,141.033 z"
     style="     stroke-width:1.0;     stroke-linecap:round;stroke-linejoin:round"
     id="path1217" />
  <path
     class="portal-foreground"
     d="M 180.887,58.3623 L 186.447,56.4464 185.803,56.331 z"
     style="     stroke-width:1.0;     stroke-linecap:round;stroke-linejoin:round"
     id="path1219" />
  <path
     class="portal-foreground"
     d="M 185.803,141.118 L 180.256,139.69 185.803,115.682 z"
     style="     stroke-width:1.0;     stroke-linecap:round;stroke-linejoin:round"
     id="path1227" />
  <path
     class="portal-foreground"
     d="M 185.803,115.682 L 180.256,115.26 185.803,64.8097 z"
     style="     stroke-width:1.0;     stroke-linecap:round;stroke-linejoin:round"
     id="path1229" />
  <path
     class="portal-foreground"
     d="M 185.803,64.8097 L 180.256,66.3992 185.803,56.331 z"
     style="     stroke-width:1.0;     stroke-linecap:round;stroke-linejoin:round"
     id="path1231" />
  <path
     class="portal-foreground"
     d="M 186.447,64.905 L 186.447,115.657 185.803,115.682 z"
     style="     stroke-width:1.0;     stroke-linecap:round;stroke-linejoin:round"
     id="path1235" />
  <path
     class="portal-foreground"
     d="M 185.803,64.8097 L 186.447,64.905 185.803,115.682 z"
     style="     stroke-width:1.0;     stroke-linecap:round;stroke-linejoin:round"
     id="path1237" />
  <path
     class="portal-foreground"
     d="M 186.447,141.033 L 192.483,116.113 186.447,115.657 z"
     style="     stroke-width:1.0;     stroke-linecap:round;stroke-linejoin:round"
     id="path1239" />
  <path
     class="portal-foreground"
     d="M 186.447,64.905 L 192.483,54.3663 186.447,56.4464 z"
     style="     stroke-width:1.0;     stroke-linecap:round;stroke-linejoin:round"
     id="path1241" />
  <path
     class="portal-foreground"
     d="M 185.803,141.118 L 192.483,142.576 186.447,141.033 z"
     style="     stroke-width:1.0;     stroke-linecap:round;stroke-linejoin:round"
     id="path1243" />
  <path
     class="portal-foreground"
     d="M 185.803,115.682 L 186.447,115.657 192.483,116.113 z"
     style="     stroke-width:1.0;     stroke-linecap:round;stroke-linejoin:round"
     id="path1245" />
  <path
     class="portal-foreground"
     d="M 185.803,64.8097 L 192.483,63.1873 186.447,64.905 z"
     style="     stroke-width:1.0;     stroke-linecap:round;stroke-linejoin:round"
     id="path1247" />
  <path
     class="portal-foreground"
     d="M 185.803,56.331 L 186.447,56.4464 192.483,54.3663 z"
     style="     stroke-width:1.0;     stroke-linecap:round;stroke-linejoin:round"
     id="path1249" />
  <path
     class="portal-foreground"
     d="M 185.803,64.8097 L 185.803,56.331 191.826,54.2408 z"
     style="     stroke-width:1.0;     stroke-linecap:round;stroke-linejoin:round"
     id="path1251" />
  <path
     class="portal-foreground"
     d="M 191.826,142.67 L 185.803,141.118 185.803,115.682 z"
     style="     stroke-width:1.0;     stroke-linecap:round;stroke-linejoin:round"
     id="path1253" />
  <path
     class="portal-foreground"
     d="M 192.483,142.576 L 192.483,116.113 186.447,141.033 z"
     style="     stroke-width:1.0;     stroke-linecap:round;stroke-linejoin:round"
     id="path1255" />
  <path
     class="portal-foreground"
     d="M 192.483,63.1873 L 192.483,54.3663 186.447,64.905 z"
     style="     stroke-width:1.0;     stroke-linecap:round;stroke-linejoin:round"
     id="path1257" />
  <path
     class="portal-foreground"
     d="M 185.803,141.118 L 191.826,142.67 192.483,142.576 z"
     style="     stroke-width:1.0;     stroke-linecap:round;stroke-linejoin:round"
     id="path1259" />
  <path
     class="portal-foreground"
     d="M 185.803,115.682 L 192.483,116.113 191.826,116.141 z"
     style="     stroke-width:1.0;     stroke-linecap:round;stroke-linejoin:round"
     id="path1261" />
  <path
     class="portal-foreground"
     d="M 185.803,64.8097 L 191.826,63.0836 192.483,63.1873 z"
     style="     stroke-width:1.0;     stroke-linecap:round;stroke-linejoin:round"
     id="path1263" />
  <path
     class="portal-foreground"
     d="M 185.803,56.331 L 192.483,54.3663 191.826,54.2408 z"
     style="     stroke-width:1.0;     stroke-linecap:round;stroke-linejoin:round"
     id="path1265" />
  <path
     class="portal-foreground"
     d="M 191.826,142.67 L 185.803,115.682 191.826,116.141 z"
     style="     stroke-width:1.0;     stroke-linecap:round;stroke-linejoin:round"
     id="path1267" />
  <path
     class="portal-foreground"
     d="M 191.826,63.0836 L 185.803,64.8097 191.826,54.2408 z"
     style="     stroke-width:1.0;     stroke-linecap:round;stroke-linejoin:round"
     id="path1269" />
  <path
     class="portal-foreground"
     d="M 192.483,63.1873 L 191.826,116.141 192.483,116.113 z"
     style="     stroke-width:1.0;     stroke-linecap:round;stroke-linejoin:round"
     id="path1271" />
  <path
     class="portal-foreground"
     d="M 191.826,63.0836 L 191.826,116.141 192.483,63.1873 z"
     style="     stroke-width:1.0;     stroke-linecap:round;stroke-linejoin:round"
     id="path1273" />
  <path
     class="portal-foreground"
     d="M 192.483,142.576 L 199.059,116.611 192.483,116.113 z"
     style="     stroke-width:1.0;     stroke-linecap:round;stroke-linejoin:round"
     id="path1275" />
  <path
     class="portal-foreground"
     d="M 192.483,116.113 L 199.059,61.3159 192.483,63.1873 z"
     style="     stroke-width:1.0;     stroke-linecap:round;stroke-linejoin:round"
     id="path1277" />
  <path
     class="portal-foreground"
     d="M 192.483,63.1873 L 199.059,52.1 192.483,54.3663 z"
     style="     stroke-width:1.0;     stroke-linecap:round;stroke-linejoin:round"
     id="path1279" />
  <path
     class="portal-foreground"
     d="M 191.826,142.67 L 198.39,144.36 192.483,142.576 z"
     style="     stroke-width:1.0;     stroke-linecap:round;stroke-linejoin:round"
     id="path1281" />
  <path
     class="portal-foreground"
     d="M 191.826,54.2408 L 192.483,54.3663 198.39,51.963 z"
     style="     stroke-width:1.0;     stroke-linecap:round;stroke-linejoin:round"
     id="path1283" />
  <path
     class="portal-foreground"
     d="M 191.826,142.67 L 191.826,116.141 198.39,116.641 z"
     style="     stroke-width:1.0;     stroke-linecap:round;stroke-linejoin:round"
     id="path1285" />
  <path
     class="portal-foreground"
     d="M 191.826,116.141 L 191.826,63.0836 198.39,61.2027 z"
     style="     stroke-width:1.0;     stroke-linecap:round;stroke-linejoin:round"
     id="path1287" />
  <path
     class="portal-foreground"
     d="M 191.826,63.0836 L 191.826,54.2408 198.39,51.963 z"
     style="     stroke-width:1.0;     stroke-linecap:round;stroke-linejoin:round"
     id="path1289" />
  <path
     class="portal-foreground"
     d="M 199.059,144.258 L 199.059,116.611 192.483,142.576 z"
     style="     stroke-width:1.0;     stroke-linecap:round;stroke-linejoin:round"
     id="path1291" />
  <path
     class="portal-foreground"
     d="M 199.059,116.611 L 199.059,61.3159 192.483,116.113 z"
     style="     stroke-width:1.0;     stroke-linecap:round;stroke-linejoin:round"
     id="path1293" />
  <path
     class="portal-foreground"
     d="M 199.059,61.3159 L 199.059,52.1 192.483,63.1873 z"
     style="     stroke-width:1.0;     stroke-linecap:round;stroke-linejoin:round"
     id="path1295" />
  <path
     class="portal-foreground"
     d="M 192.483,142.576 L 198.39,144.36 199.059,144.258 z"
     style="     stroke-width:1.0;     stroke-linecap:round;stroke-linejoin:round"
     id="path1297" />
  <path
     class="portal-foreground"
     d="M 192.483,54.3663 L 199.059,52.1 198.39,51.963 z"
     style="     stroke-width:1.0;     stroke-linecap:round;stroke-linejoin:round"
     id="path1299" />
  <path
     class="portal-foreground"
     d="M 198.39,144.36 L 191.826,142.67 198.39,116.641 z"
     style="     stroke-width:1.0;     stroke-linecap:round;stroke-linejoin:round"
     id="path1301" />
  <path
     class="portal-foreground"
     d="M 198.39,116.641 L 191.826,116.141 198.39,61.2027 z"
     style="     stroke-width:1.0;     stroke-linecap:round;stroke-linejoin:round"
     id="path1303" />
  <path
     class="portal-foreground"
     d="M 198.39,61.2027 L 191.826,63.0836 198.39,51.963 z"
     style="     stroke-width:1.0;     stroke-linecap:round;stroke-linejoin:round"
     id="path1305" />
  <path
     class="portal-foreground"
     d="M 199.059,61.3159 L 199.059,116.611 198.39,116.641 z"
     style="     stroke-width:1.0;     stroke-linecap:round;stroke-linejoin:round"
     id="path1307" />
  <path
     class="portal-foreground"
     d="M 198.39,61.2027 L 199.059,61.3159 198.39,116.641 z"
     style="     stroke-width:1.0;     stroke-linecap:round;stroke-linejoin:round"
     id="path1309" />
  <path
     class="portal-foreground"
     d="M 199.059,144.258 L 206.252,117.155 199.059,116.611 z"
     style="     stroke-width:1.0;     stroke-linecap:round;stroke-linejoin:round"
     id="path1311" />
  <path
     class="portal-foreground"
     d="M 206.252,59.269 L 199.059,52.1 199.059,61.3159 z"
     style="     stroke-width:1.0;     stroke-linecap:round;stroke-linejoin:round"
     id="path1313" />
  <path
     class="portal-foreground"
     d="M 198.39,144.36 L 205.571,146.209 199.059,144.258 z"
     style="     stroke-width:1.0;     stroke-linecap:round;stroke-linejoin:round"
     id="path1315" />
  <path
     class="portal-foreground"
     d="M 198.39,116.641 L 199.059,116.611 205.571,117.188 z"
     style="     stroke-width:1.0;     stroke-linecap:round;stroke-linejoin:round"
     id="path1317" />
  <path
     class="portal-foreground"
     d="M 198.39,61.2027 L 205.571,59.145 199.059,61.3159 z"
     style="     stroke-width:1.0;     stroke-linecap:round;stroke-linejoin:round"
     id="path1319" />
  <path
     class="portal-foreground"
     d="M 198.39,51.963 L 199.059,52.1 205.571,49.4712 z"
     style="     stroke-width:1.0;     stroke-linecap:round;stroke-linejoin:round"
     id="path1321" />
  <path
     class="portal-foreground"
     d="M 198.39,144.36 L 198.39,116.641 205.571,117.188 z"
     style="     stroke-width:1.0;     stroke-linecap:round;stroke-linejoin:round"
     id="path1323" />
  <path
     class="portal-foreground"
     d="M 205.571,59.145 L 198.39,61.2027 198.39,51.963 z"
     style="     stroke-width:1.0;     stroke-linecap:round;stroke-linejoin:round"
     id="path1325" />
  <path
     class="portal-foreground"
     d="M 206.252,146.098 L 206.252,117.155 199.059,144.258 z"
     style="     stroke-width:1.0;     stroke-linecap:round;stroke-linejoin:round"
     id="path1327" />
  <path
     class="portal-foreground"
     d="M 206.252,59.269 L 206.252,49.6214 199.059,52.1 z"
     style="     stroke-width:1.0;     stroke-linecap:round;stroke-linejoin:round"
     id="path1329" />
  <path
     class="portal-foreground"
     d="M 199.059,144.258 L 205.571,146.209 206.252,146.098 z"
     style="     stroke-width:1.0;     stroke-linecap:round;stroke-linejoin:round"
     id="path1331" />
  <path
     class="portal-foreground"
     d="M 199.059,116.611 L 206.252,117.155 205.571,117.188 z"
     style="     stroke-width:1.0;     stroke-linecap:round;stroke-linejoin:round"
     id="path1333" />
  <path
     class="portal-foreground"
     d="M 199.059,61.3159 L 205.571,59.145 206.252,59.269 z"
     style="     stroke-width:1.0;     stroke-linecap:round;stroke-linejoin:round"
     id="path1335" />
  <path
     class="portal-foreground"
     d="M 199.059,52.1 L 206.252,49.6214 205.571,49.4712 z"
     style="     stroke-width:1.0;     stroke-linecap:round;stroke-linejoin:round"
     id="path1337" />
  <path
     class="portal-foreground"
     d="M 205.571,146.209 L 198.39,144.36 205.571,117.188 z"
     style="     stroke-width:1.0;     stroke-linecap:round;stroke-linejoin:round"
     id="path1339" />
  <path
     class="portal-foreground"
     d="M 205.571,59.145 L 198.39,51.963 205.571,49.4712 z"
     style="     stroke-width:1.0;     stroke-linecap:round;stroke-linejoin:round"
     id="path1341" />
  <path
     class="portal-foreground"
     d="M 206.252,59.269 L 205.571,117.188 206.252,117.155 z"
     style="     stroke-width:1.0;     stroke-linecap:round;stroke-linejoin:round"
     id="path1343" />
  <path
     class="portal-foreground"
     d="M 205.571,59.145 L 205.571,117.188 206.252,59.269 z"
     style="     stroke-width:1.0;     stroke-linecap:round;stroke-linejoin:round"
     id="path1345" />
  <path
     class="portal-foreground"
     d="M 214.152,148.118 L 206.252,117.155 206.252,146.098 z"
     style="     stroke-width:1.0;     stroke-linecap:round;stroke-linejoin:round"
     id="path1347" />
  <path
     class="portal-foreground"
     d="M 206.252,117.155 L 214.152,57.0209 206.252,59.269 z"
     style="     stroke-width:1.0;     stroke-linecap:round;stroke-linejoin:round"
     id="path1349" />
  <path
     class="portal-foreground"
     d="M 206.252,59.269 L 214.152,46.899 206.252,49.6214 z"
     style="     stroke-width:1.0;     stroke-linecap:round;stroke-linejoin:round"
     id="path1351" />
  <path
     class="portal-foreground"
     d="M 205.571,146.209 L 213.46,148.241 206.252,146.098 z"
     style="     stroke-width:1.0;     stroke-linecap:round;stroke-linejoin:round"
     id="path1353" />
  <path
     class="portal-foreground"
     d="M 205.571,49.4712 L 206.252,49.6214 213.46,46.7337 z"
     style="     stroke-width:1.0;     stroke-linecap:round;stroke-linejoin:round"
     id="path1355" />
  <path
     class="portal-foreground"
     d="M 205.571,146.209 L 205.571,117.188 213.46,117.789 z"
     style="     stroke-width:1.0;     stroke-linecap:round;stroke-linejoin:round"
     id="path1357" />
  <path
     class="portal-foreground"
     d="M 205.571,117.188 L 205.571,59.145 213.46,56.8844 z"
     style="     stroke-width:1.0;     stroke-linecap:round;stroke-linejoin:round"
     id="path1359" />
  <path
     class="portal-foreground"
     d="M 205.571,59.145 L 205.571,49.4712 213.46,46.7337 z"
     style="     stroke-width:1.0;     stroke-linecap:round;stroke-linejoin:round"
     id="path1361" />
  <path
     class="portal-foreground"
     d="M 214.152,148.118 L 214.152,117.752 206.252,117.155 z"
     style="     stroke-width:1.0;     stroke-linecap:round;stroke-linejoin:round"
     id="path1363" />
  <path
     class="portal-foreground"
     d="M 214.152,117.752 L 214.152,57.0209 206.252,117.155 z"
     style="     stroke-width:1.0;     stroke-linecap:round;stroke-linejoin:round"
     id="path1365" />
  <path
     class="portal-foreground"
     d="M 214.152,57.0209 L 214.152,46.899 206.252,59.269 z"
     style="     stroke-width:1.0;     stroke-linecap:round;stroke-linejoin:round"
     id="path1367" />
  <path
     class="portal-foreground"
     d="M 206.252,146.098 L 213.46,148.241 214.152,148.118 z"
     style="     stroke-width:1.0;     stroke-linecap:round;stroke-linejoin:round"
     id="path1369" />
  <path
     class="portal-foreground"
     d="M 206.252,49.6214 L 214.152,46.899 213.46,46.7337 z"
     style="     stroke-width:1.0;     stroke-linecap:round;stroke-linejoin:round"
     id="path1371" />
  <path
     class="portal-foreground"
     d="M 213.46,148.241 L 205.571,146.209 213.46,117.789 z"
     style="     stroke-width:1.0;     stroke-linecap:round;stroke-linejoin:round"
     id="path1373" />
  <path
     class="portal-foreground"
     d="M 213.46,117.789 L 205.571,117.188 213.46,56.8844 z"
     style="     stroke-width:1.0;     stroke-linecap:round;stroke-linejoin:round"
     id="path1375" />
  <path
     class="portal-foreground"
     d="M 213.46,56.8844 L 205.571,59.145 213.46,46.7337 z"
     style="     stroke-width:1.0;     stroke-linecap:round;stroke-linejoin:round"
     id="path1377" />
  <path
     class="portal-foreground"
     d="M 214.152,57.0209 L 214.152,117.752 213.46,117.789 z"
     style="     stroke-width:1.0;     stroke-linecap:round;stroke-linejoin:round"
     id="path1379" />
  <path
     class="portal-foreground"
     d="M 213.46,56.8844 L 214.152,57.0209 213.46,117.789 z"
     style="     stroke-width:1.0;     stroke-linecap:round;stroke-linejoin:round"
     id="path1381" />
  <path
     class="portal-foreground"
     d="M 214.152,148.118 L 222.868,118.412 214.152,117.752 z"
     style="     stroke-width:1.0;     stroke-linecap:round;stroke-linejoin:round"
     id="path1383" />
  <path
     class="portal-foreground"
     d="M 214.152,57.0209 L 222.868,43.8952 214.152,46.899 z"
     style="     stroke-width:1.0;     stroke-linecap:round;stroke-linejoin:round"
     id="path1385" />
  <path
     class="portal-foreground"
     d="M 213.46,148.241 L 222.868,150.347 214.152,148.118 z"
     style="     stroke-width:1.0;     stroke-linecap:round;stroke-linejoin:round"
     id="path1387" />
  <path
     class="portal-foreground"
     d="M 213.46,117.789 L 214.152,117.752 222.868,118.412 z"
     style="     stroke-width:1.0;     stroke-linecap:round;stroke-linejoin:round"
     id="path1389" />
  <path
     class="portal-foreground"
     d="M 213.46,56.8844 L 222.868,54.5404 214.152,57.0209 z"
     style="     stroke-width:1.0;     stroke-linecap:round;stroke-linejoin:round"
     id="path1391" />
  <path
     class="portal-foreground"
     d="M 213.46,46.7337 L 214.152,46.899 222.868,43.8952 z"
     style="     stroke-width:1.0;     stroke-linecap:round;stroke-linejoin:round"
     id="path1393" />
  <path
     class="portal-foreground"
     d="M 213.46,148.241 L 213.46,117.789 222.166,118.452 z"
     style="     stroke-width:1.0;     stroke-linecap:round;stroke-linejoin:round"
     id="path1395" />
  <path
     class="portal-foreground"
     d="M 222.166,54.3893 L 213.46,56.8844 213.46,46.7337 z"
     style="     stroke-width:1.0;     stroke-linecap:round;stroke-linejoin:round"
     id="path1397" />
  <path
     class="portal-foreground"
     d="M 222.868,150.347 L 222.868,118.412 214.152,148.118 z"
     style="     stroke-width:1.0;     stroke-linecap:round;stroke-linejoin:round"
     id="path1399" />
  <path
     class="portal-foreground"
     d="M 222.868,54.5404 L 222.868,43.8952 214.152,57.0209 z"
     style="     stroke-width:1.0;     stroke-linecap:round;stroke-linejoin:round"
     id="path1401" />
  <path
     class="portal-foreground"
     d="M 213.46,148.241 L 222.166,150.483 222.868,150.347 z"
     style="     stroke-width:1.0;     stroke-linecap:round;stroke-linejoin:round"
     id="path1403" />
  <path
     class="portal-foreground"
     d="M 213.46,117.789 L 222.868,118.412 222.166,118.452 z"
     style="     stroke-width:1.0;     stroke-linecap:round;stroke-linejoin:round"
     id="path1405" />
  <path
     class="portal-foreground"
     d="M 213.46,56.8844 L 222.166,54.3893 222.868,54.5404 z"
     style="     stroke-width:1.0;     stroke-linecap:round;stroke-linejoin:round"
     id="path1407" />
  <path
     class="portal-foreground"
     d="M 213.46,46.7337 L 222.868,43.8952 222.166,43.7123 z"
     style="     stroke-width:1.0;     stroke-linecap:round;stroke-linejoin:round"
     id="path1409" />
  <path
     class="portal-foreground"
     d="M 222.166,150.483 L 213.46,148.241 222.166,118.452 z"
     style="     stroke-width:1.0;     stroke-linecap:round;stroke-linejoin:round"
     id="path1411" />
  <path
     class="portal-foreground"
     d="M 222.166,54.3893 L 213.46,46.7337 222.166,43.7123 z"
     style="     stroke-width:1.0;     stroke-linecap:round;stroke-linejoin:round"
     id="path1413" />
  <path
     class="portal-foreground"
     d="M 222.868,54.5404 L 222.166,118.452 222.868,118.412 z"
     style="     stroke-width:1.0;     stroke-linecap:round;stroke-linejoin:round"
     id="path1415" />
  <path
     class="portal-foreground"
     d="M 222.166,54.3893 L 222.166,118.452 222.868,54.5404 z"
     style="     stroke-width:1.0;     stroke-linecap:round;stroke-linejoin:round"
     id="path1417" />
  <path
     class="portal-foreground"
     d="M 222.868,150.347 L 232.536,119.143 222.868,118.412 z"
     style="     stroke-width:1.0;     stroke-linecap:round;stroke-linejoin:round"
     id="path1419" />
  <path
     class="portal-foreground"
     d="M 222.868,118.412 L 232.536,51.7894 222.868,54.5404 z"
     style="     stroke-width:1.0;     stroke-linecap:round;stroke-linejoin:round"
     id="path1421" />
  <path
     class="portal-foreground"
     d="M 222.868,54.5404 L 232.536,40.5638 222.868,43.8952 z"
     style="     stroke-width:1.0;     stroke-linecap:round;stroke-linejoin:round"
     id="path1423" />
  <path
     class="portal-foreground"
     d="M 222.166,150.483 L 232.536,152.82 222.868,150.347 z"
     style="     stroke-width:1.0;     stroke-linecap:round;stroke-linejoin:round"
     id="path1425" />
  <path
     class="portal-foreground"
     d="M 222.166,43.7123 L 222.868,43.8952 232.536,40.5638 z"
     style="     stroke-width:1.0;     stroke-linecap:round;stroke-linejoin:round"
     id="path1427" />
  <path
     class="portal-foreground"
     d="M 231.826,152.971 L 222.166,150.483 222.166,118.452 z"
     style="     stroke-width:1.0;     stroke-linecap:round;stroke-linejoin:round"
     id="path1429" />
  <path
     class="portal-foreground"
     d="M 222.166,118.452 L 222.166,54.3893 231.826,51.6214 z"
     style="     stroke-width:1.0;     stroke-linecap:round;stroke-linejoin:round"
     id="path1431" />
  <path
     class="portal-foreground"
     d="M 222.166,54.3893 L 222.166,43.7123 231.826,40.3604 z"
     style="     stroke-width:1.0;     stroke-linecap:round;stroke-linejoin:round"
     id="path1433" />
  <path
     class="portal-foreground"
     d="M 232.536,152.82 L 232.536,119.143 222.868,150.347 z"
     style="     stroke-width:1.0;     stroke-linecap:round;stroke-linejoin:round"
     id="path1435" />
  <path
     class="portal-foreground"
     d="M 232.536,119.143 L 232.536,51.7894 222.868,118.412 z"
     style="     stroke-width:1.0;     stroke-linecap:round;stroke-linejoin:round"
     id="path1437" />
  <path
     class="portal-foreground"
     d="M 232.536,51.7894 L 232.536,40.5638 222.868,54.5404 z"
     style="     stroke-width:1.0;     stroke-linecap:round;stroke-linejoin:round"
     id="path1439" />
  <path
     class="portal-foreground"
     d="M 222.166,150.483 L 231.826,152.971 232.536,152.82 z"
     style="     stroke-width:1.0;     stroke-linecap:round;stroke-linejoin:round"
     id="path1441" />
  <path
     class="portal-foreground"
     d="M 222.166,43.7123 L 232.536,40.5638 231.826,40.3604 z"
     style="     stroke-width:1.0;     stroke-linecap:round;stroke-linejoin:round"
     id="path1443" />
  <path
     class="portal-foreground"
     d="M 231.826,152.971 L 222.166,118.452 231.826,119.188 z"
     style="     stroke-width:1.0;     stroke-linecap:round;stroke-linejoin:round"
     id="path1445" />
  <path
     class="portal-foreground"
     d="M 231.826,119.188 L 222.166,118.452 231.826,51.6214 z"
     style="     stroke-width:1.0;     stroke-linecap:round;stroke-linejoin:round"
     id="path1447" />
  <path
     class="portal-foreground"
     d="M 231.826,51.6214 L 222.166,54.3893 231.826,40.3604 z"
     style="     stroke-width:1.0;     stroke-linecap:round;stroke-linejoin:round"
     id="path1449" />
  <path
     class="portal-foreground"
     d="M 232.536,51.7894 L 232.536,119.143 231.826,119.188 z"
     style="     stroke-width:1.0;     stroke-linecap:round;stroke-linejoin:round"
     id="path1451" />
  <path
     class="portal-foreground"
     d="M 231.826,51.6214 L 232.536,51.7894 231.826,119.188 z"
     style="     stroke-width:1.0;     stroke-linecap:round;stroke-linejoin:round"
     id="path1453" />
  <path
     class="portal-foreground"
     d="M 232.536,152.82 L 243.318,119.958 232.536,119.143 z"
     style="     stroke-width:1.0;     stroke-linecap:round;stroke-linejoin:round"
     id="path1455" />
  <path
     class="portal-foreground"
     d="M 243.318,48.7211 L 232.536,40.5638 232.536,51.7894 z"
     style="     stroke-width:1.0;     stroke-linecap:round;stroke-linejoin:round"
     id="path1457" />
  <path
     class="portal-foreground"
     d="M 231.826,152.971 L 243.318,155.577 232.536,152.82 z"
     style="     stroke-width:1.0;     stroke-linecap:round;stroke-linejoin:round"
     id="path1459" />
  <path
     class="portal-foreground"
     d="M 231.826,119.188 L 232.536,119.143 243.318,119.958 z"
     style="     stroke-width:1.0;     stroke-linecap:round;stroke-linejoin:round"
     id="path1461" />
  <path
     class="portal-foreground"
     d="M 231.826,51.6214 L 243.318,48.7211 232.536,51.7894 z"
     style="     stroke-width:1.0;     stroke-linecap:round;stroke-linejoin:round"
     id="path1463" />
  <path
     class="portal-foreground"
     d="M 231.826,40.3604 L 232.536,40.5638 243.318,36.8482 z"
     style="     stroke-width:1.0;     stroke-linecap:round;stroke-linejoin:round"
     id="path1465" />
  <path
     class="portal-foreground"
     d="M 231.826,152.971 L 231.826,119.188 242.603,120.008 z"
     style="     stroke-width:1.0;     stroke-linecap:round;stroke-linejoin:round"
     id="path1467" />
  <path
     class="portal-foreground"
     d="M 231.826,51.6214 L 231.826,40.3604 242.603,36.6206 z"
     style="     stroke-width:1.0;     stroke-linecap:round;stroke-linejoin:round"
     id="path1469" />
  <path
     class="portal-foreground"
     d="M 243.318,155.577 L 243.318,119.958 232.536,152.82 z"
     style="     stroke-width:1.0;     stroke-linecap:round;stroke-linejoin:round"
     id="path1471" />
  <path
     class="portal-foreground"
     d="M 243.318,48.7211 L 243.318,36.8482 232.536,40.5638 z"
     style="     stroke-width:1.0;     stroke-linecap:round;stroke-linejoin:round"
     id="path1473" />
  <path
     class="portal-foreground"
     d="M 231.826,152.971 L 242.603,155.746 243.318,155.577 z"
     style="     stroke-width:1.0;     stroke-linecap:round;stroke-linejoin:round"
     id="path1475" />
  <path
     class="portal-foreground"
     d="M 231.826,119.188 L 243.318,119.958 242.603,120.008 z"
     style="     stroke-width:1.0;     stroke-linecap:round;stroke-linejoin:round"
     id="path1477" />
  <path
     class="portal-foreground"
     d="M 231.826,51.6214 L 242.603,48.5331 243.318,48.7211 z"
     style="     stroke-width:1.0;     stroke-linecap:round;stroke-linejoin:round"
     id="path1479" />
  <path
     class="portal-foreground"
     d="M 231.826,40.3604 L 243.318,36.8482 242.603,36.6206 z"
     style="     stroke-width:1.0;     stroke-linecap:round;stroke-linejoin:round"
     id="path1481" />
  <path
     class="portal-foreground"
     d="M 242.603,155.746 L 231.826,152.971 242.603,120.008 z"
     style="     stroke-width:1.0;     stroke-linecap:round;stroke-linejoin:round"
     id="path1483" />
  <path
     class="portal-foreground"
     d="M 242.603,48.5331 L 231.826,51.6214 242.603,36.6206 z"
     style="     stroke-width:1.0;     stroke-linecap:round;stroke-linejoin:round"
     id="path1485" />
  <path
     class="portal-foreground"
     d="M 243.318,48.7211 L 242.603,120.008 243.318,119.958 z"
     style="     stroke-width:1.0;     stroke-linecap:round;stroke-linejoin:round"
     id="path1487" />
  <path
     class="portal-foreground"
     d="M 242.603,48.5331 L 242.603,120.008 243.318,48.7211 z"
     style="     stroke-width:1.0;     stroke-linecap:round;stroke-linejoin:round"
     id="path1489" />
  <path
     class="portal-foreground"
     d="M 243.318,155.577 L 255.419,120.874 243.318,119.958 z"
     style="     stroke-width:1.0;     stroke-linecap:round;stroke-linejoin:round"
     id="path1491" />
  <path
     class="portal-foreground"
     d="M 243.318,119.958 L 255.419,45.2773 243.318,48.7211 z"
     style="     stroke-width:1.0;     stroke-linecap:round;stroke-linejoin:round"
     id="path1493" />
  <path
     class="portal-foreground"
     d="M 243.318,48.7211 L 255.419,32.678 243.318,36.8482 z"
     style="     stroke-width:1.0;     stroke-linecap:round;stroke-linejoin:round"
     id="path1495" />
  <path
     class="portal-foreground"
     d="M 242.603,36.6206 L 243.318,36.8482 255.419,32.678 z"
     style="     stroke-width:1.0;     stroke-linecap:round;stroke-linejoin:round"
     id="path1497" />
  <path
     class="portal-foreground"
     d="M 242.603,155.746 L 254.703,158.862 243.318,155.577 z"
     style="     stroke-width:1.0;     stroke-linecap:round;stroke-linejoin:round"
     id="path1499" />
  <path
     class="portal-foreground"
     d="M 254.703,158.862 L 242.603,155.746 242.603,120.008 z"
     style="     stroke-width:1.0;     stroke-linecap:round;stroke-linejoin:round"
     id="path1501" />
  <path
     class="portal-foreground"
     d="M 242.603,120.008 L 242.603,48.5331 254.703,45.0656 z"
     style="     stroke-width:1.0;     stroke-linecap:round;stroke-linejoin:round"
     id="path1503" />
  <path
     class="portal-foreground"
     d="M 242.603,48.5331 L 242.603,36.6206 254.703,32.4216 z"
     style="     stroke-width:1.0;     stroke-linecap:round;stroke-linejoin:round"
     id="path1505" />
  <path
     class="portal-foreground"
     d="M 255.419,158.672 L 255.419,120.874 243.318,155.577 z"
     style="     stroke-width:1.0;     stroke-linecap:round;stroke-linejoin:round"
     id="path1507" />
  <path
     class="portal-foreground"
     d="M 255.419,120.874 L 255.419,45.2773 243.318,119.958 z"
     style="     stroke-width:1.0;     stroke-linecap:round;stroke-linejoin:round"
     id="path1509" />
  <path
     class="portal-foreground"
     d="M 255.419,45.2773 L 255.419,32.678 243.318,48.7211 z"
     style="     stroke-width:1.0;     stroke-linecap:round;stroke-linejoin:round"
     id="path1511" />
  <path
     class="portal-foreground"
     d="M 243.318,155.577 L 254.703,158.862 255.419,158.672 z"
     style="     stroke-width:1.0;     stroke-linecap:round;stroke-linejoin:round"
     id="path1513" />
  <path
     class="portal-foreground"
     d="M 242.603,36.6206 L 255.419,32.678 254.703,32.4216 z"
     style="     stroke-width:1.0;     stroke-linecap:round;stroke-linejoin:round"
     id="path1515" />
  <path
     class="portal-foreground"
     d="M 254.703,158.862 L 242.603,120.008 254.703,120.93 z"
     style="     stroke-width:1.0;     stroke-linecap:round;stroke-linejoin:round"
     id="path1517" />
  <path
     class="portal-foreground"
     d="M 254.703,120.93 L 242.603,120.008 254.703,45.0656 z"
     style="     stroke-width:1.0;     stroke-linecap:round;stroke-linejoin:round"
     id="path1519" />
  <path
     class="portal-foreground"
     d="M 254.703,45.0656 L 242.603,48.5331 254.703,32.4216 z"
     style="     stroke-width:1.0;     stroke-linecap:round;stroke-linejoin:round"
     id="path1521" />
  <path
     class="portal-foreground"
     d="M 255.419,120.874 L 255.419,158.672 254.703,158.862 z"
     style="     stroke-width:1.0;     stroke-linecap:round;stroke-linejoin:round"
     id="path1523" />
  <path
     class="portal-foreground"
     d="M 255.419,45.2773 L 255.419,120.874 254.703,120.93 z"
     style="     stroke-width:1.0;     stroke-linecap:round;stroke-linejoin:round"
     id="path1525" />
  <path
     class="portal-foreground"
     d="M 254.703,32.4216 L 255.419,32.678 255.419,45.2773 z"
     style="     stroke-width:1.0;     stroke-linecap:round;stroke-linejoin:round"
     id="path1527" />
  <path
     class="portal-foreground"
     d="M 254.703,120.93 L 255.419,120.874 254.703,158.862 z"
     style="     stroke-width:1.0;     stroke-linecap:round;stroke-linejoin:round"
     id="path1529" />
  <path
     class="portal-foreground"
     d="M 254.703,45.0656 L 255.419,45.2773 254.703,120.93 z"
     style="     stroke-width:1.0;     stroke-linecap:round;stroke-linejoin:round"
     id="path1531" />
  <path
     class="portal-foreground"
     d="M 254.703,32.4216 L 255.419,45.2773 254.703,45.0656 z"
     style="     stroke-width:1.0;     stroke-linecap:round;stroke-linejoin:round"
     id="path1533" />

  <rect
     style="stroke-opacity:1;stroke-linejoin:round;fill-opacity:1"
     id="rect1552"
     width="114.57"
     height="12.7303"
     x="22.919001"
     y="32.271099" />
  <rect
     style="stroke-opacity:1;stroke-linejoin:round;fill-opacity:1"
     id="rect1554"
     width="114.57"
     height="38.191002"
     x="22.919001"
     y="121.383" />
  <rect
     style="stroke-opacity:1;stroke-linejoin:round;fill-opacity:1"
     id="rect1556"
     width="0.87527353"
     height="8.2056894"
     x="134.4639"
     y="139.93436" />
  <rect
     style="stroke-opacity:1;stroke-linejoin:round;fill-opacity:1"
     id="rect1558"
     width="114.57"
     height="12.730301"
     x="22.919001"
     y="32.271099" />
  <rect
     style="stroke-linejoin:round;stroke-opacity:1;fill-opacity:1"
     id="rect6077"
     width="114.57"
     height="38.191002"
     x="22.919001"
     y="121.383" />
  <rect class="portal-foreground"
     style="stroke-linejoin:round;stroke-opacity:1;fill-opacity:1"
     id="rect6079"
     width="12.2007"
     height="75.956299"
     x="74.368202"
     y="45.426701" />
  <rect class="portal-foreground"
     style="stroke-linejoin:round;stroke-opacity:1;fill-opacity:1"
     id="rect6081"
     width="12.73"
     height="76.381599"
     x="48.379002"
     y="45.0014" />
  <rect class="portal-foreground"
     style="stroke-linejoin:round;stroke-opacity:1;fill-opacity:1"
     id="rect6083"
     width="13.5299"
     height="76.265602"
     x="22.919001"
     y="45.0014" />
  <rect class="portal-foreground"
     style="stroke-linejoin:round;stroke-opacity:1;fill-opacity:1"
     id="rect6085"
     width="12.6393"
     height="75.840302"
     x="99.647697"
     y="45.426701" />
  <rect class="portal-foreground"
     style="stroke-linejoin:round;stroke-opacity:1;fill-opacity:1"
     id="rect6087"
     width="12.562"
     height="75.956299"
     x="124.927"
     y="45.426701" />

  </symbol>
</defs>
</svg>
